<svg id="Layer_1" data-name="Layer 1" xmlns="http://www.w3.org/2000/svg" viewBox="0 0 1616.65 354.52"><defs><style>.cls-1{fill:#f26223;}</style></defs><polygon class="cls-1" points="1614.12 4.33 1479.24 217.72 1449.86 350.18 1372.79 350.18 1402.17 217.24 1360.27 4.33 1442.15 4.33 1457.08 130.53 1458.05 130.53 1530.78 4.33 1614.12 4.33"/><path class="cls-1" d="M2034.37,1403.23c0-68.4-44.32-90.08-118.5-90.08h-75.14L1764.62,1659h77.07l28.91-131h26L1913,1659h81.41l-23.12-153.66C2013.18,1485.11,2034.37,1446.1,2034.37,1403.23Zm-123.8,61.65h-26l18.79-86.22h16.38c20.71,0,33.72,9.63,33.72,33.24C1953.45,1435,1942.85,1464.88,1910.57,1464.88Z" transform="translate(-693.37 -1308.82)"/><path class="cls-1" d="M1649,1480.3h109.35l-39.5,178.7h-61.66l6.27-29.38h-1c-20.71,22.64-44.8,33.72-72.25,33.72-51.06,0-72.26-47.21-72.26-111.75,0-124.76,54.92-242.77,154.63-242.77,71.29,0,93.44,49.13,98.26,115.12l-69.84,6.74c-2.41-31.31-10.12-54.91-34.2-54.91-46.73,0-68.88,107.42-68.88,175.34,0,28.42,8.67,45.76,29.86,45.76,28.42,0,44.32-26.5,48.65-57.81h-40.94Z" transform="translate(-693.37 -1308.82)"/><polygon class="cls-1" points="830.42 4.33 754.31 350.18 682.06 350.18 644.49 144.98 643.52 144.98 598.73 350.18 526.95 350.18 603.06 4.33 688.8 4.33 717.22 187.37 718.19 187.37 758.65 4.33 830.42 4.33"/><path class="cls-1" d="M1196.73,1659l-1.93-345.85H1093.65L944.8,1659h79.48l28.42-74.66h67.92l-2.89,74.66Zm-118-143.06,49.14-128.61h1.44l-5.78,128.61Z" transform="translate(-693.37 -1308.82)"/><polygon class="cls-1" points="300.58 4.33 224.47 350.18 146.92 350.18 178.71 207.12 108.86 207.12 77.07 350.18 0 350.18 76.11 4.33 153.18 4.33 123.8 137.76 194.12 137.76 223.51 4.33 300.58 4.33"/><path class="cls-1" d="M2310,1630.93a32.41,32.41,0,1,1-32.41-32.4A32.41,32.41,0,0,1,2310,1630.93Z" transform="translate(-693.37 -1308.82)"/></svg>